{
  "asset": {
    "version": "2.0",
    "generator": "THREE.GLTFExporter r184"
  },
  "scenes": [
    {
      "name": "Scene",
      "nodes": [
        0
      ]
    }
  ],
  "scene": 0,
  "nodes": [
    {
      "name": "Rack_01",
      "children": [
        1,
        15,
        29
      ]
    },
    {
      "matrix": [
        1,
        0,
        0,
        0,
        0,
        1,
        0,
        0,
        0,
        0,
        1,
        0,
        -3,
        0,
        0.8734015201104014,
        1
      ],
      "name": "Bay_01",
      "children": [
        2,
        3,
        4,
        5,
        6,
        7,
        8,
        9,
        10,
        11,
        12,
        13,
        14
      ]
    },
    {
      "matrix": [
        0.1,
        0,
        0,
        0,
        0,
        5,
        0,
        0,
        0,
        0,
        1,
        0,
        3.1747114593252856,
        2.522219381835998,
        -0.49423274102619186,
        1
      ],
      "name": "Side_R",
      "mesh": 0
    },
    {
      "matrix": [
        3,
        0,
        0,
        0,
        0,
        0.1,
        0,
        0,
        0,
        0,
        1,
        0,
        1.6665496030491398,
        1,
        -0.4885706618290516,
        1
      ],
      "name": "Floor_02",
      "mesh": 1
    },
    {
      "matrix": [
        3,
        0,
        0,
        0,
        0,
        0.1,
        0,
        0,
        0,
        0,
        1,
        0,
        1.6665496030491398,
        2,
        -0.4885706618290516,
        1
      ],
      "name": "Floor_03",
      "mesh": 1
    },
    {
      "matrix": [
        3,
        0,
        0,
        0,
        0,
        0.1,
        0,
        0,
        0,
        0,
        1,
        0,
        1.6665496030491398,
        4,
        -0.4885706618290516,
        1
      ],
      "name": "Floor_05",
      "mesh": 1
    },
    {
      "matrix": [
        3,
        0,
        0,
        0,
        0,
        0.1,
        0,
        0,
        0,
        0,
        1,
        0,
        1.6665496030491398,
        0.1,
        -0.4885706618290516,
        1
      ],
      "name": "Floor_01",
      "mesh": 1
    },
    {
      "matrix": [
        0.1,
        0,
        0,
        0,
        0,
        5,
        0,
        0,
        0,
        0,
        1,
        0,
        0.12627148048629905,
        2.5127440513656727,
        -0.49299973103696376,
        1
      ],
      "name": "Side_L",
      "mesh": 0
    },
    {
      "matrix": [
        3,
        0,
        0,
        0,
        0,
        0.1,
        0,
        0,
        0,
        0,
        1,
        0,
        1.6665496030491398,
        3,
        -0.4885706618290516,
        1
      ],
      "name": "Floor_04",
      "mesh": 1
    },
    {
      "matrix": [
        1.1102230246251566e-17,
        0,
        -0.05,
        0,
        0,
        0.5,
        0,
        0,
        3,
        0,
        6.661338147750939e-16,
        0,
        1.667,
        4.3,
        -0.49,
        1
      ],
      "name": "Divider_5",
      "mesh": 1
    },
    {
      "matrix": [
        1.1102230246251566e-17,
        0,
        -0.05,
        0,
        0,
        0.5,
        0,
        0,
        3,
        0,
        6.661338147750939e-16,
        0,
        1.667,
        3.3,
        -0.49,
        1
      ],
      "name": "Divider_4",
      "mesh": 1
    },
    {
      "matrix": [
        1.1102230246251566e-17,
        0,
        -0.05,
        0,
        0,
        0.5,
        0,
        0,
        3,
        0,
        6.661338147750939e-16,
        0,
        1.667,
        2.3,
        -0.49,
        1
      ],
      "name": "Divider_3",
      "mesh": 1
    },
    {
      "matrix": [
        1.1102230246251566e-17,
        0,
        -0.05,
        0,
        0,
        0.5,
        0,
        0,
        3,
        0,
        6.661338147750939e-16,
        0,
        1.667,
        1.3,
        -0.49,
        1
      ],
      "name": "Divider_2",
      "mesh": 1
    },
    {
      "matrix": [
        1.1102230246251566e-17,
        0,
        -0.05,
        0,
        0,
        0.5,
        0,
        0,
        3,
        0,
        6.661338147750939e-16,
        0,
        1.667,
        0.3,
        -0.49,
        1
      ],
      "name": "Divider_1",
      "mesh": 1
    },
    {
      "matrix": [
        3,
        0,
        0,
        0,
        0,
        0.1,
        0,
        0,
        0,
        0,
        1,
        0,
        1.6665496030491398,
        5,
        -0.4885706618290516,
        1
      ],
      "name": "Box",
      "mesh": 1
    },
    {
      "matrix": [
        1,
        0,
        0,
        0,
        0,
        1,
        0,
        0,
        0,
        0,
        1,
        0,
        0,
        0,
        0.8734015201104014,
        1
      ],
      "name": "Bay_02",
      "children": [
        16,
        17,
        18,
        19,
        20,
        21,
        22,
        23,
        24,
        25,
        26,
        27,
        28
      ]
    },
    {
      "matrix": [
        0.1,
        0,
        0,
        0,
        0,
        5,
        0,
        0,
        0,
        0,
        1,
        0,
        3.1747114593252856,
        2.522219381835998,
        -0.49423274102619186,
        1
      ],
      "name": "Side_R",
      "mesh": 0
    },
    {
      "matrix": [
        3,
        0,
        0,
        0,
        0,
        0.1,
        0,
        0,
        0,
        0,
        1,
        0,
        1.6665496030491398,
        1,
        -0.4885706618290516,
        1
      ],
      "name": "Floor_02",
      "mesh": 1
    },
    {
      "matrix": [
        3,
        0,
        0,
        0,
        0,
        0.1,
        0,
        0,
        0,
        0,
        1,
        0,
        1.6665496030491398,
        2,
        -0.4885706618290516,
        1
      ],
      "name": "Floor_03",
      "mesh": 1
    },
    {
      "matrix": [
        3,
        0,
        0,
        0,
        0,
        0.1,
        0,
        0,
        0,
        0,
        1,
        0,
        1.6665496030491398,
        4,
        -0.4885706618290516,
        1
      ],
      "name": "Floor_05",
      "mesh": 1
    },
    {
      "matrix": [
        3,
        0,
        0,
        0,
        0,
        0.1,
        0,
        0,
        0,
        0,
        1,
        0,
        1.6665496030491398,
        0.1,
        -0.4885706618290516,
        1
      ],
      "name": "Floor_01",
      "mesh": 1
    },
    {
      "matrix": [
        0.1,
        0,
        0,
        0,
        0,
        5,
        0,
        0,
        0,
        0,
        1,
        0,
        0.12627148048629905,
        2.5127440513656727,
        -0.49299973103696376,
        1
      ],
      "name": "Side_L",
      "mesh": 0
    },
    {
      "matrix": [
        3,
        0,
        0,
        0,
        0,
        0.1,
        0,
        0,
        0,
        0,
        1,
        0,
        1.6665496030491398,
        3,
        -0.4885706618290516,
        1
      ],
      "name": "Floor_04",
      "mesh": 1
    },
    {
      "matrix": [
        1.1102230246251566e-17,
        0,
        -0.05,
        0,
        0,
        0.5,
        0,
        0,
        3,
        0,
        6.661338147750939e-16,
        0,
        1.667,
        4.3,
        -0.49,
        1
      ],
      "name": "Divider_5",
      "mesh": 1
    },
    {
      "matrix": [
        1.1102230246251566e-17,
        0,
        -0.05,
        0,
        0,
        0.5,
        0,
        0,
        3,
        0,
        6.661338147750939e-16,
        0,
        1.667,
        3.3,
        -0.49,
        1
      ],
      "name": "Divider_4",
      "mesh": 1
    },
    {
      "matrix": [
        1.1102230246251566e-17,
        0,
        -0.05,
        0,
        0,
        0.5,
        0,
        0,
        3,
        0,
        6.661338147750939e-16,
        0,
        1.667,
        2.3,
        -0.49,
        1
      ],
      "name": "Divider_3",
      "mesh": 1
    },
    {
      "matrix": [
        1.1102230246251566e-17,
        0,
        -0.05,
        0,
        0,
        0.5,
        0,
        0,
        3,
        0,
        6.661338147750939e-16,
        0,
        1.667,
        1.3,
        -0.49,
        1
      ],
      "name": "Divider_2",
      "mesh": 1
    },
    {
      "matrix": [
        1.1102230246251566e-17,
        0,
        -0.05,
        0,
        0,
        0.5,
        0,
        0,
        3,
        0,
        6.661338147750939e-16,
        0,
        1.667,
        0.3,
        -0.49,
        1
      ],
      "name": "Divider_1",
      "mesh": 1
    },
    {
      "matrix": [
        3,
        0,
        0,
        0,
        0,
        0.1,
        0,
        0,
        0,
        0,
        1,
        0,
        1.6665496030491398,
        5,
        -0.4885706618290516,
        1
      ],
      "name": "Box",
      "mesh": 1
    },
    {
      "matrix": [
        1,
        0,
        0,
        0,
        0,
        1,
        0,
        0,
        0,
        0,
        1,
        0,
        3,
        0,
        0.8734015201104014,
        1
      ],
      "name": "Bay_03",
      "children": [
        30,
        31,
        32,
        33,
        34,
        35,
        36,
        37,
        38,
        39,
        40,
        41,
        42
      ]
    },
    {
      "matrix": [
        0.1,
        0,
        0,
        0,
        0,
        5,
        0,
        0,
        0,
        0,
        1,
        0,
        3.1747114593252856,
        2.522219381835998,
        -0.49423274102619186,
        1
      ],
      "name": "Side_R",
      "mesh": 0
    },
    {
      "matrix": [
        3,
        0,
        0,
        0,
        0,
        0.1,
        0,
        0,
        0,
        0,
        1,
        0,
        1.6665496030491398,
        1,
        -0.4885706618290516,
        1
      ],
      "name": "Floor_02",
      "mesh": 1
    },
    {
      "matrix": [
        3,
        0,
        0,
        0,
        0,
        0.1,
        0,
        0,
        0,
        0,
        1,
        0,
        1.6665496030491398,
        2,
        -0.4885706618290516,
        1
      ],
      "name": "Floor_03",
      "mesh": 1
    },
    {
      "matrix": [
        3,
        0,
        0,
        0,
        0,
        0.1,
        0,
        0,
        0,
        0,
        1,
        0,
        1.6665496030491398,
        4,
        -0.4885706618290516,
        1
      ],
      "name": "Floor_05",
      "mesh": 1
    },
    {
      "matrix": [
        3,
        0,
        0,
        0,
        0,
        0.1,
        0,
        0,
        0,
        0,
        1,
        0,
        1.6665496030491398,
        0.1,
        -0.4885706618290516,
        1
      ],
      "name": "Floor_01",
      "mesh": 1
    },
    {
      "matrix": [
        0.1,
        0,
        0,
        0,
        0,
        5,
        0,
        0,
        0,
        0,
        1,
        0,
        0.12627148048629905,
        2.5127440513656727,
        -0.49299973103696376,
        1
      ],
      "name": "Side_L",
      "mesh": 0
    },
    {
      "matrix": [
        3,
        0,
        0,
        0,
        0,
        0.1,
        0,
        0,
        0,
        0,
        1,
        0,
        1.6665496030491398,
        3,
        -0.4885706618290516,
        1
      ],
      "name": "Floor_04",
      "mesh": 1
    },
    {
      "matrix": [
        1.1102230246251566e-17,
        0,
        -0.05,
        0,
        0,
        0.5,
        0,
        0,
        3,
        0,
        6.661338147750939e-16,
        0,
        1.667,
        4.3,
        -0.49,
        1
      ],
      "name": "Divider_5",
      "mesh": 1
    },
    {
      "matrix": [
        1.1102230246251566e-17,
        0,
        -0.05,
        0,
        0,
        0.5,
        0,
        0,
        3,
        0,
        6.661338147750939e-16,
        0,
        1.667,
        3.3,
        -0.49,
        1
      ],
      "name": "Divider_4",
      "mesh": 1
    },
    {
      "matrix": [
        1.1102230246251566e-17,
        0,
        -0.05,
        0,
        0,
        0.5,
        0,
        0,
        3,
        0,
        6.661338147750939e-16,
        0,
        1.667,
        2.3,
        -0.49,
        1
      ],
      "name": "Divider_3",
      "mesh": 1
    },
    {
      "matrix": [
        1.1102230246251566e-17,
        0,
        -0.05,
        0,
        0,
        0.5,
        0,
        0,
        3,
        0,
        6.661338147750939e-16,
        0,
        1.667,
        1.3,
        -0.49,
        1
      ],
      "name": "Divider_2",
      "mesh": 1
    },
    {
      "matrix": [
        1.1102230246251566e-17,
        0,
        -0.05,
        0,
        0,
        0.5,
        0,
        0,
        3,
        0,
        6.661338147750939e-16,
        0,
        1.667,
        0.3,
        -0.49,
        1
      ],
      "name": "Divider_1",
      "mesh": 1
    },
    {
      "matrix": [
        3,
        0,
        0,
        0,
        0,
        0.1,
        0,
        0,
        0,
        0,
        1,
        0,
        1.6665496030491398,
        5,
        -0.4885706618290516,
        1
      ],
      "name": "Box",
      "mesh": 1
    }
  ],
  "bufferViews": [
    {
      "buffer": 0,
      "byteOffset": 0,
      "byteLength": 288,
      "target": 34962,
      "byteStride": 12
    },
    {
      "buffer": 0,
      "byteOffset": 288,
      "byteLength": 288,
      "target": 34962,
      "byteStride": 12
    },
    {
      "buffer": 0,
      "byteOffset": 576,
      "byteLength": 192,
      "target": 34962,
      "byteStride": 8
    },
    {
      "buffer": 0,
      "byteOffset": 768,
      "byteLength": 72,
      "target": 34963
    },
    {
      "buffer": 0,
      "byteOffset": 840,
      "byteLength": 288,
      "target": 34962,
      "byteStride": 12
    },
    {
      "buffer": 0,
      "byteOffset": 1128,
      "byteLength": 288,
      "target": 34962,
      "byteStride": 12
    },
    {
      "buffer": 0,
      "byteOffset": 1416,
      "byteLength": 192,
      "target": 34962,
      "byteStride": 8
    },
    {
      "buffer": 0,
      "byteOffset": 1608,
      "byteLength": 72,
      "target": 34963
    }
  ],
  "buffers": [
    {
      "byteLength": 1680,
      "uri": "data:application/octet-stream;base64,"
    }
  ],
  "accessors": [
    {
      "bufferView": 0,
      "componentType": 5126,
      "count": 24,
      "max": [
        0.5,
        0.5,
        0.5
      ],
      "min": [
        -0.5,
        -0.5,
        -0.5
      ],
      "type": "VEC3"
    },
    {
      "bufferView": 1,
      "componentType": 5126,
      "count": 24,
      "max": [
        1,
        1,
        1
      ],
      "min": [
        -1,
        -1,
        -1
      ],
      "type": "VEC3"
    },
    {
      "bufferView": 2,
      "componentType": 5126,
      "count": 24,
      "max": [
        1,
        1
      ],
      "min": [
        0,
        0
      ],
      "type": "VEC2"
    },
    {
      "bufferView": 3,
      "componentType": 5123,
      "count": 36,
      "max": [
        23
      ],
      "min": [
        0
      ],
      "type": "SCALAR"
    },
    {
      "bufferView": 4,
      "componentType": 5126,
      "count": 24,
      "max": [
        0.5,
        0.5,
        0.5
      ],
      "min": [
        -0.5,
        -0.5,
        -0.5
      ],
      "type": "VEC3"
    },
    {
      "bufferView": 5,
      "componentType": 5126,
      "count": 24,
      "max": [
        1,
        1,
        1
      ],
      "min": [
        -1,
        -1,
        -1
      ],
      "type": "VEC3"
    },
    {
      "bufferView": 6,
      "componentType": 5126,
      "count": 24,
      "max": [
        1,
        1
      ],
      "min": [
        0,
        0
      ],
      "type": "VEC2"
    },
    {
      "bufferView": 7,
      "componentType": 5123,
      "count": 36,
      "max": [
        23
      ],
      "min": [
        0
      ],
      "type": "SCALAR"
    }
  ],
  "materials": [
    {
      "pbrMetallicRoughness": {
        "metallicFactor": 0,
        "roughnessFactor": 1
      }
    },
    {
      "pbrMetallicRoughness": {
        "metallicFactor": 0,
        "roughnessFactor": 1
      }
    }
  ],
  "meshes": [
    {
      "primitives": [
        {
          "mode": 4,
          "attributes": {
            "POSITION": 0,
            "NORMAL": 1,
            "TEXCOORD_0": 2
          },
          "indices": 3,
          "material": 0
        }
      ]
    },
    {
      "primitives": [
        {
          "mode": 4,
          "attributes": {
            "POSITION": 4,
            "NORMAL": 5,
            "TEXCOORD_0": 6
          },
          "indices": 7,
          "material": 1
        }
      ]
    }
  ]
}